<svg viewBox="0 0 300 300" xmlns="http://www.w3.org/2000/svg">
  <!-- Placeholder: sostituisci con una foto reale mantenendo il nome file "dog-happy" (puoi usare .png/.jpg, basta aggiornare il src in app.js) -->

  <!-- orecchie -->
  <ellipse cx="90" cy="95" rx="30" ry="46" fill="#B23A2E" stroke="#2B2118" stroke-width="4" transform="rotate(-25 90 95)" />
  <ellipse cx="210" cy="95" rx="30" ry="46" fill="#B23A2E" stroke="#2B2118" stroke-width="4" transform="rotate(25 210 95)" />

  <!-- testa -->
  <circle cx="150" cy="140" r="82" fill="#F4C430" stroke="#2B2118" stroke-width="5" />

  <!-- guance -->
  <ellipse cx="105" cy="162" rx="20" ry="12" fill="#FBE49A" opacity="0.7" />
  <ellipse cx="195" cy="162" rx="20" ry="12" fill="#FBE49A" opacity="0.7" />

  <!-- occhi felici (a cuneo, chiusi per il sorriso) -->
  <path d="M108,120 Q120,105 132,120" fill="none" stroke="#2B2118" stroke-width="5" stroke-linecap="round" />
  <path d="M168,120 Q180,105 192,120" fill="none" stroke="#2B2118" stroke-width="5" stroke-linecap="round" />

  <!-- naso -->
  <ellipse cx="150" cy="150" rx="17" ry="12" fill="#2B2118" />

  <!-- bocca aperta sorridente con lingua -->
  <path d="M150,162 L150,172" stroke="#2B2118" stroke-width="3" stroke-linecap="round" />
  <path d="M118,172 Q150,205 182,172" fill="none" stroke="#2B2118" stroke-width="4" stroke-linecap="round" />
  <path d="M132,175 Q150,205 168,175 Q150,195 132,175 Z" fill="#E8697A" stroke="#2B2118" stroke-width="2" />

  <!-- scintille di gioia -->
  <path d="M45,90 L50,100 L60,105 L50,110 L45,120 L40,110 L30,105 L40,100 Z" fill="#F4C430" opacity="0.8" />
  <path d="M255,150 L259,158 L267,162 L259,166 L255,174 L251,166 L243,162 L251,158 Z" fill="#F4C430" opacity="0.8" />
</svg>
